# xmcd CD database file
#
# Track frame offsets:
#	150
#	7381
#	30547
#	55343
#	87425
#	94656
#	117527
#
# Disc length: 1992 seconds
#
# Revision: 0
# Processed by: cddbd v1.5PL3 Copyright (c) Steve Scherf et al.
# Submitted via: CDex 1.51
#
DISCID=5a07c607
DTITLE=生音主義 - VOICE IN THE AIR 〜夜空に散りばめられた歌声〜
DYEAR=2003
DGENRE=Game
TTITLE0=Voice in the AIR 〜夜空に散りばめられた歌声〜
TTITLE1=鳥の詩
TTITLE2=夏影 -summer lights-
TTITLE3=Farewell Song
TTITLE4=interlude - 〜歌声は海へと舞い降りて〜
TTITLE5=鳥の詩 -off vocal-
TTITLE6=Farewell Song -off vocal-
EXTD=YEAR: 2003
EXTT0=
EXTT1=
EXTT2=
EXTT3=
EXTT4=
EXTT5=
EXTT6=
PLAYORDER=
